# xmcd
# 
# Track frame offsets:
#     150
#     21485
#     42508
#     62218
#     76345
#     94586
#     116514
#     140319
#     162386
#     178223
#     198093
#     231692
# 
# Disc length: 4345
# 
# Revision: 1
# Processed by: cddbd v1.5.2PL0 Copyright (c) Steve Scherf et al.
# Submitted via: BonkEnc v1.0.5
# 
DISCID=a810f70c
DTITLE=藍坊主 - ハナミドリ
DYEAR=2006
DGENRE=Japanese Pop
TTITLE0=桜の足あと
TTITLE1=テールランプ
TTITLE2=スプーン
TTITLE3=ハニービースマイル
TTITLE4=コーヒーカップと僕の部屋
TTITLE5=０
TTITLE6=ジムノペディック
TTITLE7=泣いて
TTITLE8=ベンチで手紙を読む老人
TTITLE9=柔らかいローウィン
TTITLE10=マイホームタウン
TTITLE11=[data track] 桜の足あと (PV)
EXTD=YEAR: 2006
EXTT0=
EXTT1=
EXTT2=
EXTT3=
EXTT4=
EXTT5=
EXTT6=
EXTT7=
EXTT8=
EXTT9=
EXTT10=
EXTT11=
PLAYORDER=
